<?xml version="1.0" encoding="utf-8"?>
<!-- Generator: Adobe Illustrator 16.0.0, SVG Export Plug-In . SVG Version: 6.00 Build 0)  -->
<!DOCTYPE svg PUBLIC "-//W3C//DTD SVG 1.1//EN" "http://www.w3.org/Graphics/SVG/1.1/DTD/svg11.dtd">
<svg version="1.1" id="Layer_1" xmlns="http://www.w3.org/2000/svg" xmlns:xlink="http://www.w3.org/1999/xlink" x="0px" y="0px"
	 width="512px" height="512px" viewBox="0 0 512 512" enable-background="new 0 0 512 512" xml:space="preserve">
<path fill="#473626" d="M447.667,60.333c0,0-5.301,88.197-36.308,143.246s-114.967-49.515-114.967-49.515"/>
<path fill="#473626" d="M78.381,60.333c0,0,5.301,88.197,36.308,143.246s114.873-49.884,114.873-49.884"/>
<path fill="#EAA427" d="M229.562,153.696c0,0,27.402-2.8,65.753-0.081l116.706,48.763L263.556,462.688L119.583,210.513"/>
<line fill="#EDA322" x1="407.893" y1="210.513" x2="263.557" y2="462.688"/>
<path fill="#3A3738" d="M240.14,421.694c0,0,21.305-31.306,46.833,0l-23.417,40.994L240.14,421.694z"/>
<path fill="#E8E8E8" d="M282.523,416.815c0,0,19.049-147.293,89.263-143.221l-84.813,148.1L282.523,416.815z"/>
<path fill="#E8E8E8" d="M239.957,421.694l4.449-4.879c0,0-19.049-147.293-89.263-143.221"/>
</svg>
